Coordinates
version=1
nRows=33
nColumns=38
inDegrees=no

Units are S.I. units (second, meters, Newtons, ...)
If the header above contains a line with 'inDegrees', this indicates whether rotational values are in degrees (yes) or radians (no).

endheader
time	pelvis_tilt	pelvis_list	pelvis_rotation	pelvis_tx	pelvis_ty	pelvis_tz	hip_flexion_r	hip_adduction_r	hip_rotation_r	knee_angle_r	ankle_angle_r	subtalar_angle_r	mtp_angle_r	hip_flexion_l	hip_adduction_l	hip_rotation_l	knee_angle_l	ankle_angle_l	subtalar_angle_l	mtp_angle_l	lumbar_extension	lumbar_bending	lumbar_rotation	arm_flex_r	arm_add_r	arm_rot_r	elbow_flex_r	pro_sup_r	wrist_flex_r	wrist_dev_r	arm_flex_l	arm_add_l	arm_rot_l	elbow_flex_l	pro_sup_l	wrist_flex_l	wrist_dev_l
0.96	0.501055	1.43831	-2.11564	0.929082	0.00221231	1.05897	0.323843	-0.0443612	0.0579184	1.16997	-0.152741	0	0	-0.0964372	0.131292	-0.281628	0.341895	-0.172306	0	0	-0.154299	-0.0173523	-0.00208238	-0.219616	-0.194236	-0.128945	0.368263	0.221617	0	0	0.229186	-0.590177	1.47251	0.603543	0.389316	0	0
0.97	0.467154	1.44035	-2.07872	0.929221	-0.00696178	1.05936	0.332096	-0.0381547	0.0578909	1.12773	-0.144006	0	0	-0.110262	0.126553	-0.279555	0.335078	-0.170565	0	0	-0.155241	-0.0109709	-0.00504196	-0.217439	-0.193963	-0.13078	0.367634	0.227022	0	0	0.244854	-0.594273	1.45782	0.604196	0.412128	0	0
0.98	0.437125	1.44285	-2.04595	0.92922	-0.0161971	1.05956	0.339038	-0.0322499	0.0590269	1.08152	-0.134101	0	0	-0.123362	0.121717	-0.277697	0.328407	-0.168418	0	0	-0.155083	-0.00515502	-0.00796892	-0.21499	-0.193431	-0.132658	0.366544	0.23312	0	0	0.259716	-0.598802	1.44296	0.605415	0.435471	0	0
0.99	0.418023	1.44609	-2.02479	0.929178	-0.0254723	1.05952	0.345671	-0.0278237	0.0610134	1.03224	-0.12289	0	0	-0.135069	0.118032	-0.276183	0.321433	-0.165953	0	0	-0.153409	-0.000476036	-0.0109366	-0.212147	-0.192737	-0.135717	0.365329	0.240086	0	0	0.272086	-0.603499	1.42354	0.606779	0.463611	0	0
1	0.407432	1.44984	-2.0127	0.929083	-0.034825	1.05926	0.351349	-0.0247275	0.0635532	0.979765	-0.112811	0	0	-0.145681	0.115253	-0.27545	0.314584	-0.163469	0	0	-0.150069	0.00312946	-0.0132778	-0.209544	-0.192021	-0.138326	0.363915	0.245824	0	0	0.284695	-0.608051	1.40854	0.608055	0.487689	0	0
1.01	0.403335	1.45384	-2.00763	0.928903	-0.0442637	1.0588	0.355576	-0.0227016	0.06593	0.923689	-0.103811	0	0	-0.155656	0.113205	-0.275069	0.307917	-0.161208	0	0	-0.146004	0.00586295	-0.0153858	-0.206912	-0.191195	-0.140947	0.362567	0.251448	0	0	0.296265	-0.612814	1.39321	0.609696	0.510966	0	0
1.02	0.406199	1.45807	-2.00985	0.928679	-0.0538242	1.05814	0.358305	-0.0217394	0.0675164	0.863929	-0.0951061	0	0	-0.165018	0.111971	-0.274565	0.301436	-0.158993	0	0	-0.141065	0.00770167	-0.0171886	-0.204611	-0.190339	-0.143304	0.361355	0.257268	0	0	0.306855	-0.61776	1.37778	0.611864	0.533158	0	0
1.03	0.41808	1.4626	-2.02152	0.928441	-0.0634974	1.05726	0.360037	-0.0218564	0.0672693	0.800317	-0.0877934	0	0	-0.173685	0.11187	-0.273643	0.294913	-0.156859	0	0	-0.135265	0.00863444	-0.0186647	-0.202575	-0.189634	-0.145417	0.360319	0.263047	0	0	0.316222	-0.6227	1.3618	0.614406	0.5539	0	0
1.04	0.435858	1.46739	-2.0391	0.928179	-0.0732726	1.05618	0.360624	-0.0223962	0.0643728	0.73265	-0.0833812	0	0	-0.181697	0.111983	-0.272455	0.288954	-0.154598	0	0	-0.12883	0.00919684	-0.0202011	-0.200742	-0.18909	-0.147089	0.359659	0.267392	0	0	0.32588	-0.627731	1.34996	0.61717	0.570313	0	0
1.05	0.457109	1.47244	-2.05965	0.927951	-0.0831175	1.05498	0.359983	-0.0228947	0.0581512	0.660968	-0.0815824	0	0	-0.188855	0.111615	-0.271295	0.284018	-0.152347	0	0	-0.122172	0.00987738	-0.0223056	-0.19886	-0.188636	-0.14902	0.359183	0.271023	0	0	0.334736	-0.632362	1.33808	0.619571	0.5853	0	0
1.06	0.477595	1.47739	-2.07926	0.927674	-0.093046	1.05372	0.357517	-0.022568	0.0495172	0.585683	-0.0827548	0	0	-0.196145	0.110854	-0.269555	0.279753	-0.14983	0	0	-0.115839	0.0107823	-0.0245411	-0.196717	-0.188208	-0.150998	0.358433	0.273999	0	0	0.343017	-0.6365	1.32675	0.621331	0.59921	0	0
1.07	0.495804	1.48191	-2.09639	0.92734	-0.103048	1.05241	0.352952	-0.0214955	0.0391879	0.507731	-0.0876729	0	0	-0.203954	0.109856	-0.267546	0.276087	-0.146985	0	0	-0.110322	0.0119131	-0.0270121	-0.194177	-0.187964	-0.151953	0.35751	0.277166	0	0	0.351094	-0.640308	1.31721	0.622464	0.612054	0	0
1.08	0.515294	1.48611	-2.11459	0.926983	-0.113106	1.05105	0.346862	-0.0201795	0.0279938	0.429363	-0.0973158	0	0	-0.211551	0.109018	-0.265958	0.272923	-0.144658	0	0	-0.105262	0.013052	-0.0298677	-0.1913	-0.187988	-0.151867	0.356475	0.280528	0	0	0.358856	-0.643934	1.30933	0.623285	0.622849	0	0
1.09	0.536344	1.49029	-2.13391	0.926591	-0.123221	1.0496	0.339984	-0.0186051	0.0172488	0.354412	-0.111476	0	0	-0.21872	0.107771	-0.264375	0.270802	-0.141769	0	0	-0.100273	0.0143001	-0.0328967	-0.188323	-0.18796	-0.152802	0.355198	0.282274	0	0	0.366357	-0.647225	1.303	0.623693	0.632411	0	0
1.1	0.549106	1.49438	-2.14422	0.926065	-0.133422	1.04811	0.332277	-0.0163348	0.00981154	0.286368	-0.127922	0	0	-0.225685	0.105043	-0.263315	0.270436	-0.137984	0	0	-0.0958117	0.0161514	-0.0358559	-0.185693	-0.187727	-0.153864	0.354058	0.283491	0	0	0.373781	-0.650112	1.29744	0.623748	0.641444	0	0
1.11	0.557334	1.49851	-2.14996	0.925427	-0.143672	1.04658	0.325121	-0.0135891	0.00466142	0.227438	-0.144087	0	0	-0.23171	0.101659	-0.262734	0.272389	-0.133425	0	0	-0.0917348	0.0185169	-0.0384265	-0.183204	-0.187601	-0.154423	0.353056	0.284782	0	0	0.38089	-0.652596	1.29283	0.623551	0.649563	0	0
1.12	0.55289	1.50224	-2.1426	0.924638	-0.154026	1.04506	0.317846	-0.00997148	0.00274525	0.177377	-0.155953	0	0	-0.238106	0.0971256	-0.262252	0.275854	-0.128703	0	0	-0.0885218	0.0214156	-0.0411201	-0.180824	-0.187395	-0.154576	0.352086	0.285603	0	0	0.387912	-0.65526	1.29049	0.623673	0.65485	0	0
1.13	0.535872	1.50518	-2.12217	0.923825	-0.164439	1.04363	0.310937	-0.00587292	0.00159487	0.137574	-0.165626	0	0	-0.245226	0.0920935	-0.261491	0.280291	-0.123872	0	0	-0.0867901	0.0246867	-0.0443552	-0.178021	-0.187233	-0.154661	0.350927	0.285972	0	0	0.394286	-0.658022	1.28848	0.624228	0.658715	0	0
1.14	0.509118	1.5073	-2.0915	0.923069	-0.174894	1.04229	0.304811	-0.00141924	-0.00101152	0.108621	-0.171578	0	0	-0.253142	0.0868515	-0.259774	0.285187	-0.119388	0	0	-0.0864258	0.0281447	-0.0481549	-0.174933	-0.187156	-0.154781	0.349721	0.285877	0	0	0.399883	-0.660688	1.28651	0.62505	0.661835	0	0
1.15	0.47586	1.50872	-2.05396	0.922384	-0.185388	1.04108	0.299514	0.00305915	-0.00533626	0.0903201	-0.174915	0	0	-0.261286	0.0816439	-0.257686	0.290507	-0.115742	0	0	-0.0870892	0.0317917	-0.0523043	-0.171774	-0.187247	-0.154897	0.348474	0.285481	0	0	0.404447	-0.663039	1.28442	0.625869	0.663343	0	0
1.16	0.443663	1.50998	-2.01787	0.921657	-0.196025	1.03994	0.295621	0.00757269	-0.00968519	0.0826713	-0.175834	0	0	-0.268939	0.0766556	-0.256628	0.296453	-0.113189	0	0	-0.087435	0.0353207	-0.0556822	-0.169306	-0.18742	-0.154645	0.346973	0.285349	0	0	0.407951	-0.664429	1.28249	0.625778	0.663233	0	0
1.17	0.407524	1.51088	-1.97814	0.920888	-0.206815	1.03885	0.292393	0.0123095	-0.0143133	0.0843099	-0.175106	0	0	-0.276705	0.071599	-0.256434	0.302886	-0.110769	0	0	-0.0878999	0.0388586	-0.0588887	-0.167113	-0.187457	-0.154933	0.345351	0.284523	0	0	0.409668	-0.665526	1.2793	0.625563	0.662841	0	0
1.18	0.371641	1.51145	-1.93917	0.920026	-0.217784	1.03781	0.289971	0.0170856	-0.0190286	0.0951257	-0.172756	0	0	-0.284701	0.0668583	-0.256929	0.309518	-0.108965	0	0	-0.0883179	0.0421512	-0.0615011	-0.165729	-0.187284	-0.155682	0.344092	0.283208	0	0	0.409745	-0.666586	1.27519	0.62574	0.662336	0	0
1.19	0.339899	1.51183	-1.90477	0.919058	-0.228967	1.03677	0.288328	0.0218025	-0.0236255	0.114555	-0.169235	0	0	-0.292557	0.0624942	-0.258376	0.31674	-0.107861	0	0	-0.0884248	0.0450028	-0.0636527	-0.165448	-0.186945	-0.156866	0.343466	0.281547	0	0	0.408035	-0.667868	1.27063	0.626709	0.661635	0	0
1.2	0.312718	1.51242	-1.87498	0.918004	-0.240372	1.0357	0.287409	0.0266292	-0.0278869	0.141847	-0.163885	0	0	-0.299536	0.0580367	-0.260672	0.325575	-0.106819	0	0	-0.0878192	0.0475154	-0.065739	-0.166559	-0.186495	-0.158336	0.343866	0.27963	0	0	0.404433	-0.669518	1.26569	0.628602	0.662185	0	0
1.21	0.288654	1.51326	-1.84819	0.916915	-0.252026	1.03463	0.286192	0.0316617	-0.0310373	0.171963	-0.159087	0	0	-0.305683	0.0534202	-0.262391	0.33555	-0.106278	0	0	-0.0861718	0.0499824	-0.0677627	-0.168993	-0.18611	-0.15943	0.344642	0.27829	0	0	0.398888	-0.670763	1.26017	0.630472	0.663064	0	0
1.22	0.245082	1.51395	-1.80159	0.915842	-0.263828	1.03381	0.283272	0.0378305	-0.034223	0.196249	-0.15811	0	0	-0.311618	0.0473928	-0.262643	0.346827	-0.106689	0	0	-0.0845876	0.0538936	-0.0702157	-0.171421	-0.18606	-0.160403	0.344854	0.277033	0	0	0.391431	-0.67051	1.25397	0.630698	0.663794	0	0
1.23	0.163418	1.514	-1.71712	0.914816	-0.275593	1.03351	0.278438	0.0450957	-0.0362433	0.205419	-0.161522	0	0	-0.317364	0.0393174	-0.261638	0.359927	-0.108451	0	0	-0.0842732	0.0607695	-0.0730658	-0.172219	-0.186948	-0.16054	0.343271	0.276486	0	0	0.382219	-0.667279	1.24703	0.626911	0.664751	0	0
1.24	0.0534932	1.51309	-1.60515	0.913802	-0.287377	1.0337	0.272209	0.053537	-0.0374756	0.204479	-0.167524	0	0	-0.322493	0.0295288	-0.260595	0.375869	-0.11185	0	0	-0.084699	0.0700407	-0.0756629	-0.172184	-0.188721	-0.159865	0.340594	0.276267	0	0	0.370685	-0.661012	1.23781	0.61925	0.666749	0	0
1.25	-0.0623083	1.51076	-1.48848	0.912694	-0.299252	1.0343	0.264616	0.0628785	-0.0379701	0.204977	-0.175896	0	0	-0.326944	0.0190915	-0.260158	0.394894	-0.116567	0	0	-0.0861249	0.0800684	-0.0768338	-0.172579	-0.19075	-0.159034	0.338264	0.275922	0	0	0.357562	-0.653572	1.22728	0.61092	0.667778	0	0
1.26	-0.171143	1.50783	-1.38076	0.911383	-0.311197	1.03522	0.257277	0.0722961	-0.0364458	0.21398	-0.189987	0	0	-0.329564	0.00908496	-0.260821	0.417106	-0.122749	0	0	-0.0877508	0.0901358	-0.0761327	-0.17356	-0.192953	-0.157977	0.336443	0.275413	0	0	0.342355	-0.645916	1.21501	0.603344	0.666026	0	0
1.27	-0.271803	1.5056	-1.28398	0.909844	-0.323237	1.03638	0.251731	0.0807741	-0.0304003	0.228672	-0.202961	0	0	-0.328751	0.000128494	-0.262058	0.443065	-0.130942	0	0	-0.0877867	0.0998866	-0.0733006	-0.175054	-0.195353	-0.156814	0.334302	0.274334	0	0	0.324774	-0.637622	1.20206	0.595643	0.662661	0	0
1.28	-0.356226	1.50435	-1.20493	0.908155	-0.335233	1.03763	0.248154	0.0873954	-0.0205432	0.246049	-0.208196	0	0	-0.323759	-0.00732505	-0.261653	0.473803	-0.140725	0	0	-0.0862064	0.108227	-0.0690866	-0.177335	-0.197517	-0.156285	0.332251	0.271993	0	0	0.306308	-0.628983	1.19106	0.587951	0.659181	0	0
